<mxfile host="app.diagrams.net" modified="2024-03-25T02:38:44.065Z" agent="Mozilla/5.0 (Windows NT 10.0; Win64; x64) AppleWebKit/537.36 (KHTML, like Gecko) Chrome/122.0.0.0 Safari/537.36" etag="agQk2Kkb-ZMoDcul5NiS" version="23.1.1" type="github">
  <diagram name="페이지-1" id="A5rWLlLLyAPqBno6l4CT">
    <mxGraphModel dx="1195" dy="1791" grid="1" gridSize="10" guides="1" tooltips="1" connect="1" arrows="1" fold="1" page="1" pageScale="1" pageWidth="827" pageHeight="1169" math="0" shadow="0">
      <root>
        <mxCell id="0" />
        <mxCell id="1" parent="0" />
        <mxCell id="HJgtvEgiFH4YuQQMYRPt-1" value="" style="shape=image;verticalLabelPosition=bottom;labelBackgroundColor=default;verticalAlign=top;aspect=fixed;imageAspect=0;image=https://kh-academy.co.kr/upload/editor/images/2023/4/202304061118451b6c9119-a733-4002-aa2c-14b70728fe24.jpg;" vertex="1" parent="1">
          <mxGeometry x="50" y="-520" width="645" height="425" as="geometry" />
        </mxCell>
        <mxCell id="HJgtvEgiFH4YuQQMYRPt-2" value="사용자" style="shape=umlActor;verticalLabelPosition=bottom;verticalAlign=top;html=1;outlineConnect=0;" vertex="1" parent="1">
          <mxGeometry x="370" y="175" width="30" height="60" as="geometry" />
        </mxCell>
        <mxCell id="HJgtvEgiFH4YuQQMYRPt-3" value="관리자" style="shape=umlActor;verticalLabelPosition=bottom;verticalAlign=top;html=1;outlineConnect=0;" vertex="1" parent="1">
          <mxGeometry x="500" y="175" width="30" height="60" as="geometry" />
        </mxCell>
        <mxCell id="HJgtvEgiFH4YuQQMYRPt-4" value="게시글 작성" style="ellipse;whiteSpace=wrap;html=1;" vertex="1" parent="1">
          <mxGeometry x="180" y="100" width="70" height="50" as="geometry" />
        </mxCell>
        <mxCell id="HJgtvEgiFH4YuQQMYRPt-5" value="사진 첨부" style="ellipse;whiteSpace=wrap;html=1;" vertex="1" parent="1">
          <mxGeometry x="50" y="100" width="70" height="50" as="geometry" />
        </mxCell>
        <mxCell id="HJgtvEgiFH4YuQQMYRPt-6" value="방문자 &lt;br&gt;통계 확인" style="ellipse;whiteSpace=wrap;html=1;" vertex="1" parent="1">
          <mxGeometry x="607" y="105" width="70" height="50" as="geometry" />
        </mxCell>
        <mxCell id="HJgtvEgiFH4YuQQMYRPt-7" value="날짜별" style="ellipse;whiteSpace=wrap;html=1;" vertex="1" parent="1">
          <mxGeometry x="740" y="105" width="70" height="50" as="geometry" />
        </mxCell>
        <mxCell id="HJgtvEgiFH4YuQQMYRPt-8" value="시간대별" style="ellipse;whiteSpace=wrap;html=1;" vertex="1" parent="1">
          <mxGeometry x="740" y="180" width="70" height="50" as="geometry" />
        </mxCell>
        <mxCell id="HJgtvEgiFH4YuQQMYRPt-14" value="" style="endArrow=block;html=1;rounded=0;entryX=1;entryY=0.5;entryDx=0;entryDy=0;exitX=0;exitY=0.5;exitDx=0;exitDy=0;startArrow=none;startFill=0;endFill=0;" edge="1" parent="1" source="HJgtvEgiFH4YuQQMYRPt-7" target="HJgtvEgiFH4YuQQMYRPt-6">
          <mxGeometry width="50" height="50" relative="1" as="geometry">
            <mxPoint x="350" y="225" as="sourcePoint" />
            <mxPoint x="400" y="175" as="targetPoint" />
            <Array as="points" />
          </mxGeometry>
        </mxCell>
        <mxCell id="HJgtvEgiFH4YuQQMYRPt-15" value="" style="endArrow=none;html=1;rounded=0;exitX=0;exitY=0.5;exitDx=0;exitDy=0;" edge="1" parent="1" source="HJgtvEgiFH4YuQQMYRPt-8">
          <mxGeometry width="50" height="50" relative="1" as="geometry">
            <mxPoint x="730" y="245" as="sourcePoint" />
            <mxPoint x="690" y="130" as="targetPoint" />
            <Array as="points">
              <mxPoint x="700" y="205" />
              <mxPoint x="700" y="130" />
            </Array>
          </mxGeometry>
        </mxCell>
        <mxCell id="HJgtvEgiFH4YuQQMYRPt-16" value="" style="endArrow=open;html=1;rounded=0;entryX=1;entryY=0.5;entryDx=0;entryDy=0;endFill=0;" edge="1" parent="1" source="HJgtvEgiFH4YuQQMYRPt-2" target="HJgtvEgiFH4YuQQMYRPt-4">
          <mxGeometry width="50" height="50" relative="1" as="geometry">
            <mxPoint x="170" y="200" as="sourcePoint" />
            <mxPoint x="820" y="190" as="targetPoint" />
          </mxGeometry>
        </mxCell>
        <mxCell id="HJgtvEgiFH4YuQQMYRPt-17" value="&amp;lt;&amp;lt;extends&amp;gt;&amp;gt;" style="endArrow=none;dashed=1;html=1;strokeWidth=2;rounded=0;exitX=1;exitY=0.5;exitDx=0;exitDy=0;entryX=0;entryY=0.5;entryDx=0;entryDy=0;startArrow=open;startFill=0;" edge="1" parent="1" source="HJgtvEgiFH4YuQQMYRPt-5" target="HJgtvEgiFH4YuQQMYRPt-4">
          <mxGeometry width="50" height="50" relative="1" as="geometry">
            <mxPoint x="400" y="180" as="sourcePoint" />
            <mxPoint x="450" y="130" as="targetPoint" />
            <Array as="points" />
          </mxGeometry>
        </mxCell>
        <mxCell id="HJgtvEgiFH4YuQQMYRPt-18" value="카테고리&lt;br&gt;선택" style="ellipse;whiteSpace=wrap;html=1;" vertex="1" parent="1">
          <mxGeometry x="50" y="175" width="70" height="50" as="geometry" />
        </mxCell>
        <mxCell id="HJgtvEgiFH4YuQQMYRPt-19" value="&amp;lt;&amp;lt;include&amp;gt;&amp;gt;" style="endArrow=none;dashed=1;html=1;strokeWidth=2;rounded=0;entryX=0;entryY=0.5;entryDx=0;entryDy=0;startArrow=open;startFill=0;exitX=1;exitY=0.5;exitDx=0;exitDy=0;" edge="1" parent="1" source="HJgtvEgiFH4YuQQMYRPt-18" target="HJgtvEgiFH4YuQQMYRPt-4">
          <mxGeometry width="50" height="50" relative="1" as="geometry">
            <mxPoint x="120" y="180" as="sourcePoint" />
            <mxPoint x="400" y="135" as="targetPoint" />
            <Array as="points" />
          </mxGeometry>
        </mxCell>
        <mxCell id="HJgtvEgiFH4YuQQMYRPt-20" value="" style="endArrow=open;html=1;rounded=0;entryX=0.012;entryY=0.66;entryDx=0;entryDy=0;endFill=0;entryPerimeter=0;" edge="1" parent="1" target="HJgtvEgiFH4YuQQMYRPt-6">
          <mxGeometry width="50" height="50" relative="1" as="geometry">
            <mxPoint x="540" y="203" as="sourcePoint" />
            <mxPoint x="617" y="140" as="targetPoint" />
          </mxGeometry>
        </mxCell>
        <mxCell id="HJgtvEgiFH4YuQQMYRPt-21" value="게시글 &lt;br&gt;목록 조회" style="ellipse;whiteSpace=wrap;html=1;" vertex="1" parent="1">
          <mxGeometry x="180" y="180" width="70" height="50" as="geometry" />
        </mxCell>
        <mxCell id="HJgtvEgiFH4YuQQMYRPt-22" value="" style="endArrow=open;html=1;rounded=0;entryX=1;entryY=0.5;entryDx=0;entryDy=0;endFill=0;" edge="1" parent="1" source="HJgtvEgiFH4YuQQMYRPt-2" target="HJgtvEgiFH4YuQQMYRPt-21">
          <mxGeometry width="50" height="50" relative="1" as="geometry">
            <mxPoint x="160" y="195" as="sourcePoint" />
            <mxPoint x="220" y="135" as="targetPoint" />
          </mxGeometry>
        </mxCell>
        <mxCell id="HJgtvEgiFH4YuQQMYRPt-23" value="&amp;lt;&amp;lt;include&amp;gt;&amp;gt;" style="endArrow=none;dashed=1;html=1;strokeWidth=2;rounded=0;entryX=0;entryY=0.5;entryDx=0;entryDy=0;startArrow=open;startFill=0;exitX=0.993;exitY=0.66;exitDx=0;exitDy=0;exitPerimeter=0;" edge="1" parent="1" source="HJgtvEgiFH4YuQQMYRPt-18" target="HJgtvEgiFH4YuQQMYRPt-21">
          <mxGeometry width="50" height="50" relative="1" as="geometry">
            <mxPoint x="390" y="190" as="sourcePoint" />
            <mxPoint x="290" y="135" as="targetPoint" />
            <Array as="points" />
          </mxGeometry>
        </mxCell>
        <mxCell id="HJgtvEgiFH4YuQQMYRPt-33" value="" style="edgeStyle=orthogonalEdgeStyle;rounded=0;orthogonalLoop=1;jettySize=auto;html=1;" edge="1" parent="1" source="HJgtvEgiFH4YuQQMYRPt-24" target="HJgtvEgiFH4YuQQMYRPt-21">
          <mxGeometry relative="1" as="geometry" />
        </mxCell>
        <mxCell id="HJgtvEgiFH4YuQQMYRPt-24" value="게시글&lt;br&gt;상세 조회" style="ellipse;whiteSpace=wrap;html=1;" vertex="1" parent="1">
          <mxGeometry x="180" y="285" width="70" height="50" as="geometry" />
        </mxCell>
        <mxCell id="HJgtvEgiFH4YuQQMYRPt-25" value="&amp;lt;&amp;lt;extends&amp;gt;&amp;gt;" style="endArrow=none;dashed=1;html=1;strokeWidth=2;rounded=0;exitX=0.5;exitY=1;exitDx=0;exitDy=0;entryX=0.5;entryY=0;entryDx=0;entryDy=0;startArrow=open;startFill=0;" edge="1" parent="1" source="HJgtvEgiFH4YuQQMYRPt-21" target="HJgtvEgiFH4YuQQMYRPt-24">
          <mxGeometry width="50" height="50" relative="1" as="geometry">
            <mxPoint x="290" y="135" as="sourcePoint" />
            <mxPoint x="400" y="135" as="targetPoint" />
            <Array as="points" />
          </mxGeometry>
        </mxCell>
        <mxCell id="HJgtvEgiFH4YuQQMYRPt-27" value="댓글 작성" style="ellipse;whiteSpace=wrap;html=1;" vertex="1" parent="1">
          <mxGeometry x="100" y="380" width="70" height="50" as="geometry" />
        </mxCell>
        <mxCell id="HJgtvEgiFH4YuQQMYRPt-28" value="댓글 조회" style="ellipse;whiteSpace=wrap;html=1;" vertex="1" parent="1">
          <mxGeometry x="280" y="380" width="70" height="50" as="geometry" />
        </mxCell>
        <mxCell id="HJgtvEgiFH4YuQQMYRPt-29" value="신고" style="ellipse;whiteSpace=wrap;html=1;" vertex="1" parent="1">
          <mxGeometry x="440" y="380" width="70" height="50" as="geometry" />
        </mxCell>
        <mxCell id="HJgtvEgiFH4YuQQMYRPt-30" value="" style="endArrow=open;html=1;rounded=0;endFill=0;" edge="1" parent="1" target="HJgtvEgiFH4YuQQMYRPt-29">
          <mxGeometry width="50" height="50" relative="1" as="geometry">
            <mxPoint x="515" y="260" as="sourcePoint" />
            <mxPoint x="505" y="394" as="targetPoint" />
          </mxGeometry>
        </mxCell>
        <mxCell id="HJgtvEgiFH4YuQQMYRPt-34" value="&amp;lt;&amp;lt;include&amp;gt;&amp;gt;" style="endArrow=none;dashed=1;html=1;strokeWidth=2;rounded=0;entryX=0.707;entryY=0.027;entryDx=0;entryDy=0;startArrow=open;startFill=0;exitX=0.5;exitY=1;exitDx=0;exitDy=0;entryPerimeter=0;" edge="1" parent="1" source="HJgtvEgiFH4YuQQMYRPt-24" target="HJgtvEgiFH4YuQQMYRPt-27">
          <mxGeometry width="50" height="50" relative="1" as="geometry">
            <mxPoint x="130" y="218" as="sourcePoint" />
            <mxPoint x="220" y="215" as="targetPoint" />
            <Array as="points" />
          </mxGeometry>
        </mxCell>
        <mxCell id="HJgtvEgiFH4YuQQMYRPt-35" value="&amp;lt;&amp;lt;include&amp;gt;&amp;gt;" style="endArrow=none;dashed=1;html=1;strokeWidth=2;rounded=0;entryX=0.433;entryY=0.01;entryDx=0;entryDy=0;startArrow=open;startFill=0;exitX=0.5;exitY=1;exitDx=0;exitDy=0;entryPerimeter=0;" edge="1" parent="1" source="HJgtvEgiFH4YuQQMYRPt-24" target="HJgtvEgiFH4YuQQMYRPt-28">
          <mxGeometry width="50" height="50" relative="1" as="geometry">
            <mxPoint x="140" y="228" as="sourcePoint" />
            <mxPoint x="230" y="225" as="targetPoint" />
            <Array as="points" />
          </mxGeometry>
        </mxCell>
        <mxCell id="HJgtvEgiFH4YuQQMYRPt-36" value="&amp;lt;&amp;lt;extends&amp;gt;&amp;gt;" style="endArrow=none;dashed=1;html=1;strokeWidth=2;rounded=0;exitX=0;exitY=0.5;exitDx=0;exitDy=0;entryX=1;entryY=0.5;entryDx=0;entryDy=0;startArrow=open;startFill=0;" edge="1" parent="1" source="HJgtvEgiFH4YuQQMYRPt-29" target="HJgtvEgiFH4YuQQMYRPt-24">
          <mxGeometry width="50" height="50" relative="1" as="geometry">
            <mxPoint x="255" y="240" as="sourcePoint" />
            <mxPoint x="255" y="290" as="targetPoint" />
            <Array as="points" />
          </mxGeometry>
        </mxCell>
        <mxCell id="HJgtvEgiFH4YuQQMYRPt-37" value="&amp;lt;&amp;lt;extends&amp;gt;&amp;gt;" style="endArrow=none;dashed=1;html=1;strokeWidth=2;rounded=0;exitX=0;exitY=0.5;exitDx=0;exitDy=0;entryX=1;entryY=0.5;entryDx=0;entryDy=0;startArrow=open;startFill=0;" edge="1" parent="1" source="HJgtvEgiFH4YuQQMYRPt-29" target="HJgtvEgiFH4YuQQMYRPt-28">
          <mxGeometry width="50" height="50" relative="1" as="geometry">
            <mxPoint x="265" y="250" as="sourcePoint" />
            <mxPoint x="265" y="300" as="targetPoint" />
            <Array as="points" />
          </mxGeometry>
        </mxCell>
        <mxCell id="HJgtvEgiFH4YuQQMYRPt-38" value="게시글 수정" style="ellipse;whiteSpace=wrap;html=1;" vertex="1" parent="1">
          <mxGeometry x="397" y="105" width="70" height="50" as="geometry" />
        </mxCell>
        <mxCell id="HJgtvEgiFH4YuQQMYRPt-39" value="" style="endArrow=open;html=1;rounded=0;entryX=0;entryY=0.5;entryDx=0;entryDy=0;endFill=0;exitX=1;exitY=0.5;exitDx=0;exitDy=0;" edge="1" parent="1" source="HJgtvEgiFH4YuQQMYRPt-21" target="HJgtvEgiFH4YuQQMYRPt-38">
          <mxGeometry width="50" height="50" relative="1" as="geometry">
            <mxPoint x="380" y="265" as="sourcePoint" />
            <mxPoint x="264" y="222" as="targetPoint" />
          </mxGeometry>
        </mxCell>
        <mxCell id="HJgtvEgiFH4YuQQMYRPt-40" value="게시글 비밀번호 인증" style="ellipse;whiteSpace=wrap;html=1;" vertex="1" parent="1">
          <mxGeometry x="397" y="5" width="70" height="50" as="geometry" />
        </mxCell>
        <mxCell id="HJgtvEgiFH4YuQQMYRPt-41" value="&amp;lt;&amp;lt;include&amp;gt;&amp;gt;" style="endArrow=none;dashed=1;html=1;strokeWidth=2;rounded=0;entryX=0.5;entryY=1;entryDx=0;entryDy=0;startArrow=open;startFill=0;exitX=0.5;exitY=0;exitDx=0;exitDy=0;" edge="1" parent="1" source="HJgtvEgiFH4YuQQMYRPt-38" target="HJgtvEgiFH4YuQQMYRPt-40">
          <mxGeometry width="50" height="50" relative="1" as="geometry">
            <mxPoint x="124" y="210" as="sourcePoint" />
            <mxPoint x="184" y="135" as="targetPoint" />
            <Array as="points" />
          </mxGeometry>
        </mxCell>
        <mxCell id="HJgtvEgiFH4YuQQMYRPt-42" value="게시글 삭제" style="ellipse;whiteSpace=wrap;html=1;" vertex="1" parent="1">
          <mxGeometry x="240" y="5" width="70" height="50" as="geometry" />
        </mxCell>
        <mxCell id="HJgtvEgiFH4YuQQMYRPt-43" value="" style="endArrow=open;html=1;rounded=0;entryX=0.5;entryY=1;entryDx=0;entryDy=0;endFill=0;" edge="1" parent="1" target="HJgtvEgiFH4YuQQMYRPt-42">
          <mxGeometry width="50" height="50" relative="1" as="geometry">
            <mxPoint x="250" y="210" as="sourcePoint" />
            <mxPoint x="354" y="135" as="targetPoint" />
          </mxGeometry>
        </mxCell>
        <mxCell id="HJgtvEgiFH4YuQQMYRPt-44" value="&amp;lt;&amp;lt;include&amp;gt;&amp;gt;" style="endArrow=none;dashed=1;html=1;strokeWidth=2;rounded=0;entryX=0;entryY=0.5;entryDx=0;entryDy=0;startArrow=open;startFill=0;exitX=1;exitY=0.5;exitDx=0;exitDy=0;" edge="1" parent="1" source="HJgtvEgiFH4YuQQMYRPt-42" target="HJgtvEgiFH4YuQQMYRPt-40">
          <mxGeometry width="50" height="50" relative="1" as="geometry">
            <mxPoint x="442" y="115" as="sourcePoint" />
            <mxPoint x="442" y="65" as="targetPoint" />
            <Array as="points" />
          </mxGeometry>
        </mxCell>
      </root>
    </mxGraphModel>
  </diagram>
</mxfile>
